{
    "asset": {
        "version": "2.0",
        "generator": "Open Asset Import Library (assimp v5.0.5eb040c7)"
    },
    "accessors": [
        {
            "bufferView": 0,
            "byteOffset": 0,
            "componentType": 5126,
            "count": 202,
            "type": "VEC3",
            "max": [
                1.4142520427703858,
                2.3919999599456789,
                0.6532760262489319
            ],
            "min": [
                -1.4142520427703858,
                -0.05361500009894371,
                -0.6532760262489319
            ]
        },
        {
            "bufferView": 1,
            "byteOffset": 0,
            "componentType": 5126,
            "count": 202,
            "type": "VEC2",
            "max": [
                0.9588000178337097,
                0.946399986743927
            ],
            "min": [
                0.040800001472234729,
                0.05169999599456787
            ]
        },
        {
            "bufferView": 2,
            "byteOffset": 0,
            "componentType": 5125,
            "count": 1068,
            "type": "SCALAR",
            "max": [
                201
            ],
            "min": [
                0
            ]
        }
    ],
    "buffers": [
        {
            "byteLength": 8312,
            "uri": "result.bin"
        }
    ],
    "bufferViews": [
        {
            "buffer": 0,
            "byteOffset": 0,
            "byteLength": 2424,
            "target": 34962
        },
        {
            "buffer": 0,
            "byteOffset": 2424,
            "byteLength": 1616,
            "target": 34962
        },
        {
            "buffer": 0,
            "byteOffset": 4040,
            "byteLength": 4272,
            "target": 34963
        }
    ],
    "materials": [
        {
            "name": "DefaultMaterial",
            "pbrMetallicRoughness": {
                "baseColorFactor": [
                    0.6000000238418579,
                    0.6000000238418579,
                    0.6000000238418579,
                    1.0
                ],
                "metallicFactor": 0.0
            }
        }
    ],
    "meshes": [
        {
            "name": "Vert",
            "primitives": [
                {
                    "mode": 4,
                    "material": 0,
                    "indices": 2,
                    "attributes": {
                        "POSITION": 0,
                        "TEXCOORD_0": 1
                    }
                }
            ]
        }
    ],
    "nodes": [
        {
            "name": "input.obj",
            "children": [
                1
            ]
        },
        {
            "name": "Vert",
            "mesh": 0
        }
    ],
    "scenes": [
        {
            "nodes": [
                0
            ]
        }
    ],
    "scene": 0
}