{
    "asset": {
        "version": "2.0",
        "generator": "Open Asset Import Library (assimp v5.0.cd42b995)"
    },
    "extensionsUsed": [
        "FB_ngon_encoding"
    ],
    "accessors": [
        {
            "bufferView": 0,
            "byteOffset": 0,
            "componentType": 5126,
            "count": 540,
            "type": "VEC3",
            "max": [
                40.200477600097659,
                19.83432388305664,
                35.37236404418945
            ],
            "min": [
                -40.12973403930664,
                -19.750080108642579,
                -31.783004760742189
            ]
        },
        {
            "bufferView": 1,
            "byteOffset": 0,
            "componentType": 5126,
            "count": 540,
            "type": "VEC3",
            "max": [
                0.9923995733261108,
                0.9990578889846802,
                0.9933635592460632
            ],
            "min": [
                -0.995579183101654,
                -0.9975017309188843,
                -0.9872033596038818
            ]
        },
        {
            "bufferView": 2,
            "byteOffset": 0,
            "componentType": 5125,
            "count": 540,
            "type": "SCALAR",
            "max": [
                539
            ],
            "min": [
                0
            ]
        }
    ],
    "buffers": [
        {
            "byteLength": 15120,
            "uri": "result.bin"
        }
    ],
    "bufferViews": [
        {
            "buffer": 0,
            "byteOffset": 0,
            "byteLength": 6480,
            "target": 34962
        },
        {
            "buffer": 0,
            "byteOffset": 6480,
            "byteLength": 6480,
            "target": 34962
        },
        {
            "buffer": 0,
            "byteOffset": 12960,
            "byteLength": 2160,
            "target": 34963
        }
    ],
    "materials": [
        {
            "name": "Material #30",
            "pbrMetallicRoughness": {
                "baseColorFactor": [
                    0.4270588755607605,
                    0.023294121026992799,
                    0.023294121026992799,
                    1.0
                ],
                "metallicFactor": 0.0,
                "roughnessFactor": 0.49403542280197146
            }
        }
    ],
    "meshes": [
        {
            "name": "Love",
            "primitives": [
                {
                    "mode": 4,
                    "material": 0,
                    "indices": 2,
                    "attributes": {
                        "POSITION": 0,
                        "NORMAL": 1
                    }
                }
            ]
        }
    ],
    "nodes": [
        {
            "name": "RootNode",
            "children": [
                1
            ]
        },
        {
            "name": "Love_$AssimpFbx$_Translation",
            "matrix": [
                1.0,
                0.0,
                0.0,
                0.0,
                0.0,
                1.0,
                0.0,
                0.0,
                0.0,
                0.0,
                1.0,
                0.0,
                0.0,
                33.41501235961914,
                -0.0,
                1.0
            ],
            "children": [
                2
            ]
        },
        {
            "name": "Love_$AssimpFbx$_PreRotation",
            "matrix": [
                1.0,
                0.0,
                0.0,
                0.0,
                0.0,
                -4.371138828673793e-8,
                -1.0,
                0.0,
                0.0,
                1.0,
                -4.371138828673793e-8,
                0.0,
                0.0,
                0.0,
                0.0,
                1.0
            ],
            "children": [
                3
            ]
        },
        {
            "name": "Love",
            "mesh": 0
        }
    ],
    "scenes": [
        {
            "nodes": [
                0
            ]
        }
    ],
    "scene": 0
}